<?xml version="1.0" standalone="no"?><!DOCTYPE svg PUBLIC "-//W3C//DTD SVG 1.1//EN" "http://www.w3.org/Graphics/SVG/1.1/DTD/svg11.dtd"><svg t="1504085503079" class="icon" style="" viewBox="0 0 1024 1024" version="1.1" xmlns="http://www.w3.org/2000/svg" p-id="2959" xmlns:xlink="http://www.w3.org/1999/xlink" width="32" height="32"><defs><style type="text/css"></style></defs><path d="M119.466667 153.6c0-37.546667 30.72-68.266667 68.266666-68.266667h102.4v836.266667h-102.4c-37.546667 0-68.266667-30.72-68.266666-68.266667V153.6z" fill="#A5C48C" p-id="2960"></path><path d="M290.133333 85.333333h-102.4C150.186667 85.333333 119.466667 116.053333 119.466667 153.6v699.733333c0 37.546667 30.72 68.266667 68.266666 68.266667h716.8V85.333333H290.133333z m-102.4 785.066667c-10.24 0-17.066667-8.533333-17.066666-17.066667V153.6c0-10.24 8.533333-17.066667 17.066666-17.066667h51.2v733.866667h-51.2z m665.6 0H290.133333V136.533333h563.2v733.866667z" fill="#3C3C3C" p-id="2961"></path><path d="M341.333333 256h460.8v51.2H341.333333zM341.333333 341.333333h460.8v51.2H341.333333zM341.333333 426.666667h358.4v51.2H341.333333z" fill="#3C3C3C" p-id="2962"></path><path d="M119.466667 861.866667c0-32.426667 27.306667-59.733333 59.733333-59.733334H904.533333v119.466667H179.2C146.773333 921.6 119.466667 894.293333 119.466667 861.866667z" fill="#FFFFFF" p-id="2963"></path><path d="M904.533333 921.6H179.2C146.773333 921.6 119.466667 894.293333 119.466667 861.866667S146.773333 802.133333 179.2 802.133333H904.533333v119.466667z m-725.333333-68.266667c-5.12 0-8.533333 3.413333-8.533333 8.533334s3.413333 8.533333 8.533333 8.533333H853.333333v-17.066667H179.2z" fill="#3C3C3C" p-id="2964"></path></svg>