<?xml version="1.0" standalone="no"?><!DOCTYPE svg PUBLIC "-//W3C//DTD SVG 1.1//EN" "http://www.w3.org/Graphics/SVG/1.1/DTD/svg11.dtd"><svg t="1504083233245" class="icon" style="" viewBox="0 0 1000 1000" version="1.1" xmlns="http://www.w3.org/2000/svg" p-id="1973" id="mx_n_1504083233248" xmlns:xlink="http://www.w3.org/1999/xlink" width="32" height="32"><defs><style type="text/css"></style></defs><path d="M844.58 787.4201c-37.2343 0-62.797-31.1329-76.3264-53.4188 70.699-70.4972 114.4501-168.0051 114.4501-275.7341 0-215.0542-174.3429-389.39-389.395-389.39-215.075 0-389.4219 174.3358-389.4219 389.39 0 215.0552 174.3469 389.39 389.4219 389.39 71.6194 0 138.7196-19.3409 196.3719-53.076 37.718 52.5524 122.5279 73.754 122.5279 73.754h110.57756209294679v-80.915139535395C922.7872 787.4201 902.5661 787.4201 844.58 787.4201zM280.944 564.5522c-58.6616 0-106.2223-47.5468-106.2223-106.206 0-58.6482 47.5597-106.19 106.2223-106.19 58.6346 0 106.1994 47.5418 106.1994 106.19C387.1424 517.0055 339.5787 564.5522 280.944 564.5522zM493.5986 777.2061c-58.6616 0-106.1984-47.5428-106.1984-106.191 0-58.6592 47.5357-106.202 106.1984-106.202 58.6576 0 106.1954 47.5428 106.1954 106.202C599.7929 729.6623 552.2562 777.2061 493.5986 777.2061zM437.4623 458.3572c0-31.01 25.148-56.1419 56.1592-56.1419s56.1592 25.131 56.1592 56.1419-25.148 56.1459-56.1592 56.1459S437.4623 489.3672 437.4623 458.3572zM493.5986 343.5801c-58.6616 0-106.1984-47.5468-106.1984-106.199s47.5357-106.198 106.1984-106.198c58.6576 0 106.1954 47.5458 106.1954 106.198S552.2562 343.5801 493.5986 343.5801zM608.3655 458.3452c0-58.6482 47.5597-106.19 106.1994-106.19 58.6606 0 106.2173 47.5418 106.2173 106.19 0 58.6592-47.5567 106.206-106.2173 106.206C655.9252 564.5522 608.3655 517.0055 608.3655 458.3452z" p-id="1974" fill="#515151"></path></svg>